<?xml version="1.0" standalone="no"?>
<!DOCTYPE svg PUBLIC "-//W3C//DTD SVG 20010904//EN"
 "http://www.w3.org/TR/2001/REC-SVG-20010904/DTD/svg10.dtd">
<svg version="1.0" xmlns="http://www.w3.org/2000/svg"
 width="176.000000pt" height="170.000000pt" viewBox="0 0 176.000000 170.000000"
 preserveAspectRatio="xMidYMid meet">
<g transform="translate(0.000000,170.000000) scale(0.100000,-0.100000)"
fill="#000000" stroke="none">
<path d="M375 1536 c-43 -19 -82 -61 -100 -109 -14 -37 -15 -109 -13 -593 l3
-550 28 -42 c56 -85 32 -82 661 -82 586 0 589 0 639 48 61 57 59 33 58 641 0
331 -4 567 -9 582 -15 39 -63 90 -99 105 -47 20 -1123 20 -1168 0z m343 -387
l3 -146 46 23 c106 54 222 11 274 -101 28 -61 26 -65 -33 -65 l-53 0 -22 51
c-36 81 -124 102 -190 44 l-28 -23 1 -158 1 -158 32 -28 c79 -70 171 -37 195
72 l12 55 54 3 53 3 -7 -41 c-27 -169 -206 -248 -328 -144 l-32 26 -15 -31
c-15 -31 -16 -32 -81 -29 -78 4 -94 32 -30 53 l35 12 0 324 0 324 -35 11 c-63
21 -47 47 35 60 119 20 110 31 113 -137z m477 142 c3 -5 2 -104 -1 -220 l-7
-211 -49 0 -48 0 0 175 c0 189 -2 195 -59 195 -15 0 -21 6 -21 24 0 22 5 25
73 34 100 13 105 13 112 3z m178 -498 l-2 -228 -40 -3 -41 -3 0 95 0 96 -275
0 -275 0 0 40 0 40 275 0 275 0 0 95 0 95 43 0 42 0 -2 -227z m107 98 c0 -48
3 -60 18 -63 16 -5 19 -17 13 -70 -1 -5 -8 -8 -16 -8 -12 0 -15 -13 -15 -60
l0 -60 -40 2 -40 1 0 159 0 158 40 0 40 0 0 -59z m-890 -101 l0 -40 -90 0 -90
0 0 40 0 40 90 0 90 0 0 -40z m601 -177 c1 -138 6 -153 49 -167 25 -8 35 -17
35 -31 0 -32 -258 -31 -263 1 -3 18 4 23 35 31 l38 9 3 132 3 132 49 0 50 0 1
-107z"/>
</g>
</svg>
