<?xml version="1.0" standalone="no"?>
<!DOCTYPE svg PUBLIC "-//W3C//DTD SVG 20010904//EN"
 "http://www.w3.org/TR/2001/REC-SVG-20010904/DTD/svg10.dtd">
<svg version="1.0" xmlns="http://www.w3.org/2000/svg"
 width="122.000000pt" height="120.000000pt" viewBox="0 0 122.000000 120.000000"
 preserveAspectRatio="xMidYMid meet">
<g transform="translate(0.000000,120.000000) scale(0.100000,-0.100000)"
fill="#000000" stroke="none">
<path d="M110 1125 c-1 -3 -1 -240 -1 -527 l0 -523 525 -3 526 -2 0 530 0 530
-525 0 c-289 0 -525 -2 -525 -5z m572 -264 c29 -32 30 -37 26 -112 -2 -56 -8
-83 -20 -95 -15 -16 -15 -19 5 -45 28 -39 35 -131 13 -182 -24 -59 -78 -78
-208 -75 l-103 3 0 124 c0 90 -3 125 -12 128 -10 4 -13 -14 -13 -67 l0 -71
-35 3 -36 3 -2 153 -2 152 38 0 37 0 0 -70 c0 -58 3 -70 17 -70 14 0 15 13 10
124 -4 68 -3 127 1 131 4 4 62 5 130 3 l124 -3 30 -34z m173 -186 l0 -220 80
-1 80 -1 3 -52 3 -51 -135 0 -136 0 0 276 0 275 53 -3 52 -3 0 -220z m-575
-50 l0 -85 -30 0 -30 0 0 85 0 85 30 0 30 0 0 -85z"/>
<path d="M500 625 l0 -175 44 0 c55 0 76 19 76 69 0 46 -14 61 -57 61 -32 0
-33 1 -33 44 0 42 1 44 34 50 37 7 46 21 46 70 0 43 -16 56 -67 56 l-43 0 0
-175z"/>
</g>
</svg>
